<svg xmlns="http://www.w3.org/2000/svg" width="1200" height="420" viewBox="0 0 1200 420" role="img" aria-labelledby="title desc">
  <title id="title">indigokarasu</title>
  <desc id="desc">indigokarasu — Building OCAS, an open suite of agent skills for personal intelligence.</desc>
  <defs>
    <radialGradient id="bg" cx="0.26" cy="0.34" r="0.9" gradientUnits="userSpaceOnUse">
      <stop offset="0" stop-color="#15101F"/>
      <stop offset="0.55" stop-color="#0C0F16"/>
      <stop offset="1" stop-color="#0B0E11"/>
    </radialGradient>
    <linearGradient id="accent" x1="0" y1="0" x2="1" y2="0">
      <stop offset="0" stop-color="#7C5CFF"/>
      <stop offset="1" stop-color="#9B7BFF"/>
    </linearGradient>
  </defs>
  <rect width="1200" height="420" fill="url(#bg)"/>
  <circle cx="980" cy="150" r="220" fill="#7C5CFF" opacity="0.06"/>
  <text x="64" y="104" font-family="-apple-system, BlinkMacSystemFont, 'Segoe UI', sans-serif" font-size="58" font-weight="800" letter-spacing="-1" fill="#F4F6FB">indigokarasu</text>
  <rect x="66" y="126" width="64" height="4" rx="2" fill="url(#accent)"/>
  <text x="64" y="170" font-family="-apple-system, BlinkMacSystemFont, 'Segoe UI', sans-serif" font-size="22" fill="#C7CEDB">Building OCAS — an open suite of agent skills</text>
  <text x="64" y="202" font-family="-apple-system, BlinkMacSystemFont, 'Segoe UI', sans-serif" font-size="22" fill="#C7CEDB">for personal intelligence.</text>
  <text x="64" y="250" font-family="-apple-system, BlinkMacSystemFont, 'Segoe UI', sans-serif" font-size="14" fill="#8A93A6" letter-spacing="2">TELL IT WHAT YOU NEED. IT DOES THE WORK.</text>
  <g transform="translate(960 250)">
    <polygon points="0,-46 40,-23 40,23 0,46 -40,23 -40,-23" fill="#0E111A" stroke="url(#accent)" stroke-width="2.5"/>
    <text x="0" y="6" text-anchor="middle" font-family="-apple-system, BlinkMacSystemFont, 'Segoe UI', sans-serif" font-size="17" font-weight="700" fill="#F4F6FB">OCAS</text>
    <g font-family="ui-monospace, Menlo, monospace" font-size="12" fill="#AEB6C6" text-anchor="middle">
      <line x1="0" y1="0" x2="-150" y2="-92" stroke="#7C5CFF" stroke-width="1.4" opacity="0.5"/>
      <line x1="0" y1="0" x2="150" y2="-92" stroke="#7C5CFF" stroke-width="1.4" opacity="0.5"/>
      <line x1="0" y1="0" x2="-150" y2="92" stroke="#7C5CFF" stroke-width="1.4" opacity="0.5"/>
      <line x1="0" y1="0" x2="150" y2="92" stroke="#7C5CFF" stroke-width="1.4" opacity="0.5"/>
      <line x1="0" y1="0" x2="0" y2="-120" stroke="#7C5CFF" stroke-width="1.4" opacity="0.5"/>
      <line x1="0" y1="0" x2="0" y2="120" stroke="#7C5CFF" stroke-width="1.4" opacity="0.5"/>
      <circle cx="-150" cy="-92" r="6" fill="#7C5CFF"/><text x="-150" y="-106">skills</text>
      <circle cx="150" cy="-92" r="6" fill="#7C5CFF"/><text x="150" y="-106">agents</text>
      <circle cx="-150" cy="92" r="6" fill="#7C5CFF"/><text x="-150" y="112">memory</text>
      <circle cx="150" cy="92" r="6" fill="#7C5CFF"/><text x="150" y="112">tools</text>
      <circle cx="0" cy="-120" r="6" fill="#7C5CFF"/><text x="0" y="-134">router</text>
      <circle cx="0" cy="120" r="6" fill="#7C5CFF"/><text x="0" y="140">context</text>
    </g>
  </g>
</svg>
